<?xml version="1.0" encoding="utf-8"?>
<!-- Generator: Adobe Illustrator 24.1.1, SVG Export Plug-In . SVG Version: 6.00 Build 0)  -->
<svg version="1.1" id="Layer_1" xmlns="http://www.w3.org/2000/svg" xmlns:xlink="http://www.w3.org/1999/xlink" x="0px" y="0px"
	 viewBox="0 0 512 512" style="enable-background:new 0 0 512 512;" xml:space="preserve">
<style type="text/css">
	.st0{fill:#00261A;}
	.st1{fill:#52CCA3;}
	.st2{fill:#CAFCEB;}
	.st3{fill:none;stroke:#CAFCEB;stroke-width:18;stroke-miterlimit:10;}
</style>
<g>
	<path class="st0" d="M417.7,512H94.3C42.2,512,0,469.8,0,417.7V94C0,41.9,42.2-0.3,94.3-0.3h323.5C469.8-0.3,512,41.9,512,94v323.7
		C512,469.8,469.8,512,417.7,512z"/>
</g>
<polygon class="st1" points="197,107.8 195.1,106.4 190.3,106.4 190.3,192.5 103.2,192.5 103.2,319.5 190.3,319.5 190.3,405.6 
	195.2,405.6 197.2,404 363,255.8 "/>
<path class="st2" d="M190.2,106.9l167,148.9L190.2,405.1h-85.5v-85.6v-127v-85.6H190.2 M195.9,89.9h-5.6h-85.6h-17v17v85.6v127v85.6
	v17h17h85.6h5.9l4.6-3.6l181.9-162.7L200.5,93.3L195.9,89.9L195.9,89.9z"/>
<rect x="338.8" y="107" class="st1" width="85.5" height="85.5"/>
<rect x="338.8" y="319.5" class="st1" width="85.5" height="85.5"/>
</svg>
