<?xml version="1.0" encoding="utf-8"?>
<!-- Generator: Adobe Illustrator 25.2.1, SVG Export Plug-In . SVG Version: 6.00 Build 0)  -->
<svg version="1.1" id="Layer_1" xmlns="http://www.w3.org/2000/svg" xmlns:xlink="http://www.w3.org/1999/xlink" x="0px" y="0px"
	 viewBox="0 0 512 512" style="enable-background:new 0 0 512 512;" xml:space="preserve">
<style type="text/css">
	.st0{fill:#BBBBBB;}
	.st1{fill:#DDDDDD;}
</style>
<polygon class="st0" points="197,107.8 195.1,106.4 190.3,106.4 190.3,192.5 103.2,192.5 103.2,319.5 190.3,319.5 190.3,405.6 
	195.2,405.6 197.2,404 363,255.8 "/>
<path class="st1" d="M190.2,106.9l167,148.9l-167,149.3h-85.5c0-86.8,0-211.4,0-298.2H190.2 M195.9,89.9c-16.6,0-92.6,0-108.2,0
	c0,100.6,0,231.6,0,332.2c15.6,0,91.9,0,108.5,0l186.5-166.3L195.9,89.9L195.9,89.9z"/>
<rect x="338.8" y="107" class="st0" width="85.5" height="85.5"/>
<rect x="338.8" y="319.5" class="st0" width="85.5" height="85.5"/>
</svg>
