<?xml version="1.0" encoding="utf-8"?>
<!-- Generator: Adobe Illustrator 25.2.1, SVG Export Plug-In . SVG Version: 6.00 Build 0)  -->
<svg version="1.1" id="Layer_1" xmlns="http://www.w3.org/2000/svg" xmlns:xlink="http://www.w3.org/1999/xlink" x="0px" y="0px"
	 viewBox="0 0 512 512" style="enable-background:new 0 0 512 512;" xml:space="preserve">
<style type="text/css">
	.st0{fill:#00261A;}
	.st1{fill:#52CCA3;}
	.st2{fill:#CAFCEB;}
</style>
<g>
	<path class="st0" d="M417.7,512H94.3C42.2,512,0,469.8,0,417.7V94C0,41.9,42.2-0.3,94.3-0.3h323.5c52,0,94.2,42.2,94.2,94.3v323.7
		C512,469.8,469.8,512,417.7,512z"/>
</g>
<polygon class="st1" points="195.1,106.4 190.3,106.4 190.3,192.5 103.2,192.5 103.2,319.5 190.3,319.5 190.3,405.6 195.2,405.6 
	363,255.8 "/>
<path class="st2" d="M190.2,106.9l167,148.9l-167,149.3h-85.5c0-86.8,0-211.4,0-298.2H190.2 M195.9,89.9c-16.6,0-92.6,0-108.2,0
	c0,100.6,0,231.6,0,332.2c15.6,0,91.9,0,108.5,0l186.5-166.3L195.9,89.9L195.9,89.9z"/>
<rect x="338.8" y="107" class="st1" width="85.5" height="85.5"/>
<rect x="338.8" y="319.5" class="st1" width="85.5" height="85.5"/>
</svg>
